<?xml version="1.0" encoding="iso-8859-1"?>
<!-- Generator: Adobe Illustrator 19.0.0, SVG Export Plug-In . SVG Version: 6.00 Build 0)  -->
<svg version="1.1" id="Layer_1" xmlns="http://www.w3.org/2000/svg" xmlns:xlink="http://www.w3.org/1999/xlink" x="0px" y="0px"
	 viewBox="0 0 467.5 467.5" style="enable-background:new 0 0 467.5 467.5;" xml:space="preserve">
<g>
	<g>
		<path style="fill:#E0E0E3;" d="M309.014,444.75h-35.027c-11.296,0-20.486-9.19-20.486-20.486V361.25c0-4.142,3.357-7.5,7.5-7.5
			s7.5,3.358,7.5,7.5v63.014c0,3.025,2.461,5.486,5.486,5.486h35.027c3.025,0,5.486-2.461,5.486-5.486V365.25
			c0-4.142,3.357-7.5,7.5-7.5s7.5,3.358,7.5,7.5v59.014C329.5,435.56,320.31,444.75,309.014,444.75z"/>
	</g>
	<g>
		<path style="fill:#E0E0E3;" d="M198.014,442.75h-35.028c-11.296,0-20.486-9.19-20.486-20.486v-87.113c0-4.142,3.358-7.5,7.5-7.5
			s7.5,3.358,7.5,7.5v87.113c0,3.025,2.461,5.486,5.486,5.486h35.028c3.025,0,5.486-2.461,5.486-5.486V335.25
			c0-4.142,3.358-7.5,7.5-7.5s7.5,3.358,7.5,7.5v87.014C218.5,433.56,209.31,442.75,198.014,442.75z"/>
	</g>
	<g>
		<path style="fill:#F5C16E;" d="M298,75.75c-6.341,0-11.5,5.159-11.5,11.5v3c0,6.341,5.159,11.5,11.5,11.5h82.179l-3.432-10.488
			c-3.036-9.278-11.631-15.512-21.389-15.512H298z"/>
		<path style="fill:#F5C16E;" d="M373.821,73.75l3.432,10.488c3.036,9.278,11.631,15.512,21.389,15.512H456
			c6.341,0,11.5-5.159,11.5-11.5v-3c0-6.341-5.159-11.5-11.5-11.5H373.821z"/>
		<path style="fill:#F4AA51;" d="M298,88.75h57.358c8.844,0,16.719,5.132,20.379,13h4.441l-3.432-10.488
			c-3.036-9.278-11.631-15.512-21.389-15.512H298c-6.341,0-11.5,5.159-11.5,11.5v3c0,1.793,0.424,3.486,1.16,5
			C289.524,91.41,293.452,88.75,298,88.75z"/>
		<path style="fill:#F4AA51;" d="M456,85.642h-57.358c-8.423,0-15.972-4.652-19.834-11.892h-4.986l3.432,10.488
			c3.036,9.278,11.631,15.512,21.389,15.512H456c6.341,0,11.5-5.159,11.5-11.5v-3c0-2.014-0.524-3.906-1.437-5.554
			C464.101,83.237,460.327,85.642,456,85.642z"/>
	</g>
	<g>
		<path style="fill:#E0E0E3;" d="M377,146.75c-4.143,0-7.5-3.358-7.5-7.5v-96c0-4.142,3.357-7.5,7.5-7.5s7.5,3.358,7.5,7.5v96
			C384.5,143.392,381.143,146.75,377,146.75z"/>
	</g>
	<path style="fill:#F5C16E;" d="M87.321,99.75l3.432-10.488c3.036-9.278,11.631-15.512,21.389-15.512H169.5
		c6.341,0,11.5,5.159,11.5,11.5v3c0,6.341-5.159,11.5-11.5,11.5H87.321z"/>
	<path style="fill:#F4AA51;" d="M169.5,73.75h-57.358c-9.757,0-18.353,6.234-21.389,15.512L87.321,99.75h4.441
		c3.66-7.868,11.535-13,20.379-13H169.5c4.548,0,8.476,2.66,10.34,6.5c0.735-1.514,1.16-3.207,1.16-5v-3
		C181,78.909,175.841,73.75,169.5,73.75z"/>
	<path style="fill:#F5C16E;" d="M11.5,101.75c-6.341,0-11.5-5.159-11.5-11.5v-3c0-6.341,5.159-11.5,11.5-11.5h82.179l-3.432,10.488
		c-3.036,9.278-11.631,15.512-21.389,15.512H11.5z"/>
	<path style="fill:#F4AA51;" d="M68.858,88.75H11.5c-4.548,0-8.476-2.66-10.34-6.5C0.424,83.764,0,85.457,0,87.25v3
		c0,6.341,5.159,11.5,11.5,11.5h57.358c9.757,0,18.353-6.234,21.389-15.512l3.432-10.488h-4.441
		C85.577,83.618,77.703,88.75,68.858,88.75z"/>
	<g>
		<path style="fill:#E0E0E3;" d="M91,146.75c-4.142,0-7.5-3.358-7.5-7.5v-96c0-4.142,3.358-7.5,7.5-7.5s7.5,3.358,7.5,7.5v96
			C98.5,143.392,95.142,146.75,91,146.75z"/>
	</g>
	<path style="fill:#4B4B5B;" d="M377.5,51.75c-7.995,0-14.5-6.505-14.5-14.5s6.505-14.5,14.5-14.5s14.5,6.505,14.5,14.5
		S385.495,51.75,377.5,51.75z"/>
	<polygon style="fill:#E0E0E3;" points="256.694,269.027 250.931,215.435 218.998,216.116 212.402,277.127 249.049,277.127 
		256.536,277.127 	"/>
	<polygon style="fill:#C5C5D6;" points="250.974,215.838 250.931,215.435 218.998,216.116 212.402,277.127 231.354,277.127 
		237.95,216.116 	"/>
	<g>
		<path style="fill:#4B4B5B;" d="M91,51.75c-7.995,0-14.5-6.505-14.5-14.5s6.505-14.5,14.5-14.5s14.5,6.505,14.5,14.5
			S98.995,51.75,91,51.75z"/>
		<path style="fill:#4B4B5B;" d="M75.5,163.75v-20.763c0-6.196,5.041-11.237,11.237-11.237h7.525
			c6.196,0,11.237,5.041,11.237,11.237v20.763H75.5z"/>
		<path style="fill:#4B4B5B;" d="M362,163.75v-20.763c0-6.196,5.041-11.237,11.237-11.237h7.525c6.196,0,11.237,5.041,11.237,11.237
			v20.763H362z"/>
		<path style="fill:#4B4B5B;" d="M75.5,163.75v-20.763c0-6.196,5.041-11.237,11.237-11.237h7.525
			c6.196,0,11.237,5.041,11.237,11.237v20.763H75.5z"/>
		<path style="fill:#404051;" d="M98,132.402c-1.171-0.415-2.426-0.652-3.737-0.652h-7.525c-6.196,0-11.237,5.041-11.237,11.237
			v20.763h15v-20.763C90.5,138.103,93.638,133.948,98,132.402z"/>
		<path style="fill:#404051;" d="M384.5,132.402c-1.171-0.415-2.426-0.652-3.737-0.652h-7.525c-6.196,0-11.237,5.041-11.237,11.237
			v20.763h15v-20.763C377,138.103,380.138,133.948,384.5,132.402z"/>
		<path style="fill:#656572;" d="M72.5,190.75c-7.72,0-14-6.28-14-14s6.28-14,14-14h323c7.72,0,14,6.28,14,14s-6.28,14-14,14H72.5z"
			/>
		<path style="fill:#535360;" d="M398.353,176.75h-323c-6.104,0-11.294-3.933-13.205-9.392c-2.258,2.487-3.648,5.776-3.648,9.392
			c0,7.72,6.28,14,14,14h323c7.72,0,14-6.28,14-14c0-1.616-0.289-3.162-0.795-4.608C406.142,174.964,402.457,176.75,398.353,176.75z
			"/>
		<path style="fill:#4B4B5B;" d="M222.542,221.25c-0.96,0-1.912-0.173-2.81-0.51l-0.001,0c-6.119-2.298-10.23-8.224-10.23-14.748
			v-0.484c0-8.703,7.055-15.758,15.758-15.758h17.484c8.703,0,15.758,7.055,15.758,15.758v0.484c0,6.523-4.111,12.45-10.231,14.748
			l0,0c-0.899,0.337-1.851,0.51-2.811,0.51H222.542z"/>
		<path style="fill:#404051;" d="M239.23,220.74c-6.119-2.298-10.23-8.224-10.23-14.748v-0.484c0-8.363,6.519-15.185,14.75-15.707
			c-0.335-0.021-0.668-0.051-1.008-0.051h-17.484c-8.703,0-15.758,7.055-15.758,15.758v0.484c0,6.523,4.111,12.45,10.23,14.748
			l0.001,0c0.899,0.337,1.851,0.51,2.81,0.51h19.5C241.082,221.25,240.13,221.077,239.23,220.74L239.23,220.74z"/>
		<g>
			<path style="fill:#C5C5D6;" d="M211,327.75c-4.142,0-7.5,3.358-7.5,7.5v44.831h15V335.25
				C218.5,331.108,215.142,327.75,211,327.75z"/>
			<path style="fill:#C5C5D6;" d="M150,327.651c-4.142,0-7.5,3.358-7.5,7.5v44.929h15v-44.929
				C157.5,331.009,154.142,327.651,150,327.651z"/>
		</g>
		<path style="fill:#656572;" d="M141.696,361.081c-8.839,0-16.031-7.191-16.031-16.031v-52.892c0-8.839,7.191-16.031,16.031-16.031
			h116.961v84.954H141.696z"/>
		<path style="fill:#535360;" d="M227.657,285.015v70.471c0,1.901,0.145,3.769,0.417,5.595h30.583v-84.954h-29.934
			C228.033,278.979,227.657,281.953,227.657,285.015z"/>
		<path style="fill:#4B4B5B;" d="M125.666,305.75v-13.592c0-8.839,7.191-16.031,16.031-16.031h120.961v29.623H125.666z"/>
		<path style="fill:#41414F;" d="M227.657,305.75h31v-29.623h-29.934c-0.691,2.852-1.066,5.826-1.066,8.888V305.75z"/>
		<g>
			<path style="fill:#C5C5D6;" d="M322,357.75c-4.143,0-7.5,3.358-7.5,7.5v28h15v-28C329.5,361.108,326.143,357.75,322,357.75z"/>
			<path style="fill:#C5C5D6;" d="M265.423,393.25h3.077v-32c0-4.142-3.357-7.5-7.5-7.5s-7.5,3.358-7.5,7.5v30.06
				C257.251,392.562,261.257,393.25,265.423,393.25z"/>
		</g>
		<path style="fill:#656572;" d="M310.03,266.25h-44.607c-10.348,0-18.766,8.418-18.766,18.765v70.471
			c0,10.347,8.418,18.765,18.766,18.765h44.607h27.139v-108H310.03z"/>
		<path style="fill:#4B4B5B;" d="M322.025,374.25c-12.512,0-22.69-10.179-22.69-22.691v-62.618c0-12.512,10.179-22.691,22.69-22.691
			h62.618c12.512,0,22.691,10.179,22.691,22.691v62.618c0,12.512-10.18,22.691-22.691,22.691H322.025z"/>
		<path style="fill:#7FE4F4;" d="M353.335,353.673c-18.43,0-33.424-14.994-33.424-33.423s14.994-33.423,33.424-33.423
			s33.423,14.994,33.423,33.423S371.765,353.673,353.335,353.673z"/>
		<path style="fill:#2FCDDD;" d="M351.077,314.75c0-10.626,4.991-20.102,12.745-26.229c-3.3-1.094-6.824-1.694-10.486-1.694
			c-18.43,0-33.424,14.994-33.424,33.423s14.994,33.423,33.424,33.423c7.804,0,14.985-2.696,20.679-7.195
			C360.707,342.069,351.077,329.517,351.077,314.75z"/>
		<path style="fill:#0FC5CE;" d="M353.335,335.263c-8.278,0-15.013-6.735-15.013-15.013s6.735-15.013,15.013-15.013
			s15.013,6.735,15.013,15.013S361.613,335.263,353.335,335.263z"/>
		<g>
			<circle style="fill:#4B4B5B;" cx="274.5" cy="293.75" r="6"/>
		</g>
		<g>
			<circle style="fill:#4B4B5B;" cx="274.5" cy="320.75" r="6"/>
		</g>
		<g>
			<circle style="fill:#4B4B5B;" cx="274.5" cy="347.75" r="6"/>
		</g>
	</g>
</g>
<g>
</g>
<g>
</g>
<g>
</g>
<g>
</g>
<g>
</g>
<g>
</g>
<g>
</g>
<g>
</g>
<g>
</g>
<g>
</g>
<g>
</g>
<g>
</g>
<g>
</g>
<g>
</g>
<g>
</g>
</svg>
